<svg id="Layer_1" data-name="Layer 1" xmlns="http://www.w3.org/2000/svg" viewBox="0 0 204.97 79.43"><defs><style>.cls-1{fill:none;stroke:#231f20;stroke-miterlimit:20;}</style></defs><title>node</title><path class="cls-1" d="M205.56,31.41l9.55,5.37c0.67,0.37,1.32.78,2,1.12a2.46,2.46,0,0,1,1.42,2.16c0,0.59.1,1.19,0.1,1.78q0,26.38,0,52.76c0,0.4,0,.79,0,1.19a3.13,3.13,0,0,1-1.78,2.86q-9.29,5.32-18.54,10.71a2.92,2.92,0,0,1-3.2,0q-9.33-5.42-18.69-10.8a2.92,2.92,0,0,1-1.61-2.76q0-10.79,0-21.58a2.86,2.86,0,0,1,1.55-2.71q9.4-5.39,18.76-10.83a2.94,2.94,0,0,1,3.27,0c1.23,0.75,2.49,1.46,3.75,2.17s1.89,0.4,1.9-1.12q0-11.09,0-22.18c0-2.12,0-4.25,0-6.37a1.92,1.92,0,0,1,.86-1.82h0.68ZM189.41,85h0c0,1.08,0,2.15,0,3.22a1.67,1.67,0,0,0,1,1.64c1.78,1,3.55,2,5.3,3a1.76,1.76,0,0,0,2,0q2.7-1.6,5.44-3.13a1.65,1.65,0,0,0,.93-1.58q0-3.14,0-6.28a1.65,1.65,0,0,0-.9-1.59q-2.88-1.62-5.74-3.31a1.34,1.34,0,0,0-1.5,0c-1.9,1.12-3.83,2.19-5.71,3.35a1.79,1.79,0,0,0-.72,1.2C189.35,82.69,189.41,83.82,189.41,85Z" transform="translate(-67.56 -30.91)"/><path class="cls-1" d="M68.06,72.54a10.13,10.13,0,0,1,1.78-1.74c6.11-3.58,12.26-7.08,18.39-10.63a3.07,3.07,0,0,1,3.36,0q9.15,5.3,18.35,10.53a3.3,3.3,0,0,1,1.84,3.23c0,9.49,0,19,0,28.47,0,0.69.17,1.48-.58,1.92s-1.4-.06-2-0.43c-3.29-1.88-6.56-3.82-9.89-5.64a3.38,3.38,0,0,1-2-3.4c0.08-4.08,0-8.16,0-12.24A3.49,3.49,0,0,0,95.25,79c-1.32-.65-2.56-1.45-3.84-2.18a2.67,2.67,0,0,0-2.76-.07c-1.56.86-3.11,1.75-4.65,2.65A2.67,2.67,0,0,0,82.66,82c0,4.25,0,8.5,0,12.75a3.49,3.49,0,0,1-2,3.45c-3.44,1.91-6.84,3.9-10.26,5.85-1.18.67-1.57,0.59-2.41-.39V72.54Z" transform="translate(-67.56 -30.91)"/><path class="cls-1" d="M272,79a3.51,3.51,0,0,1-1.92,2.34c-3.47,2-6.91,4-10.37,6a5.1,5.1,0,0,1-.53.27c-1.06.46-1.75,0.05-1.8-1.08s0-2.27,0-3.4c0-.48,0-1-0.05-1.44a2.12,2.12,0,0,0-1.26-1.94c-1.62-.87-3.2-1.81-4.78-2.77a2.17,2.17,0,0,0-2.53,0c-1.61,1-3.26,1.94-4.93,2.85a1.86,1.86,0,0,0-1.07,1.85q0,3.06,0,6.12a1.83,1.83,0,0,0,1,1.78q9.22,5.26,18.43,10.56c0.17,0.1.35,0.19,0.51,0.3a1.21,1.21,0,0,1,0,2.24c-1.21.74-2.46,1.4-3.69,2.09-2.43,1.35-4.87,2.67-7.28,4a3.12,3.12,0,0,1-3.42,0q-9.19-5.32-18.45-10.53a2.82,2.82,0,0,1-1.57-2.69q0-10.83,0-21.66a2.83,2.83,0,0,1,1.55-2.7q9.4-5.39,18.77-10.82a2.79,2.79,0,0,1,3,0q9.33,5.42,18.67,10.82A3.38,3.38,0,0,1,272,73.39V79Z" transform="translate(-67.56 -30.91)"/><path class="cls-1" d="M165.15,84.76c0,3.54,0,7.08,0,10.62a3,3,0,0,1-1.66,2.9q-9.17,5.27-18.31,10.6a3.33,3.33,0,0,1-3.73,0q-9.05-5.31-18.17-10.5a3.38,3.38,0,0,1-1.87-3.24q0-10.45,0-20.9A3.4,3.4,0,0,1,123.3,71q9.26-5.29,18.47-10.65a2.78,2.78,0,0,1,3,0l19,11a2.84,2.84,0,0,1,1.4,2.72c0,3.6,0,7.19,0,10.79h0Z" transform="translate(-67.56 -30.91)"/></svg>